<?xml version="1.0"?>
<svg xmlns="http://www.w3.org/2000/svg" xmlns:xlink="http://www.w3.org/1999/xlink" xmlns:svgjs="http://svgjs.com/svgjs" version="1.1" width="512" height="512" x="0" y="0" viewBox="0 0 512 512" style="enable-background:new 0 0 512 512" xml:space="preserve" class=""><g>
<g xmlns="http://www.w3.org/2000/svg">
	<rect x="34.133" y="315.733" style="" width="85.333" height="153.6" fill="#d0caca" data-original="#ffaf46" class=""/>
	<rect x="273.067" y="213.333" style="" width="85.333" height="256" fill="#d0caca" data-original="#ffaf46" class=""/>
	<rect x="153.6" y="110.933" style="" width="85.333" height="358.4" fill="#d0caca" data-original="#ffaf46" class=""/>
	<rect x="392.533" y="8.533" style="" width="85.333" height="460.8" fill="#d0caca" data-original="#ffaf46" class=""/>
</g>
<g xmlns="http://www.w3.org/2000/svg">
	<rect y="494.933" style="" width="512" height="17.067" fill="#d0caca" data-original="#231f20" class=""/>
	<path style="" d="M119.467,477.867H34.133c-4.71,0-8.533-3.823-8.533-8.533v-153.6c0-4.71,3.823-8.533,8.533-8.533   h85.333c4.71,0,8.533,3.823,8.533,8.533v153.6C128,474.044,124.177,477.867,119.467,477.867z M42.667,460.8h68.267V324.267H42.667   V460.8z" fill="#d0caca" data-original="#231f20" class=""/>
	<path style="" d="M358.4,477.867h-85.333c-4.71,0-8.533-3.823-8.533-8.533v-256c0-4.71,3.823-8.533,8.533-8.533H358.4   c4.71,0,8.533,3.823,8.533,8.533v256C366.933,474.044,363.11,477.867,358.4,477.867z M281.6,460.8h68.267V221.867H281.6V460.8z" fill="#d0caca" data-original="#231f20" class=""/>
	<path style="" d="M238.933,477.867H153.6c-4.71,0-8.533-3.823-8.533-8.533v-358.4c0-4.71,3.823-8.533,8.533-8.533   h85.333c4.71,0,8.533,3.823,8.533,8.533v358.4C247.467,474.044,243.644,477.867,238.933,477.867z M162.133,460.8H230.4V119.467   h-68.267V460.8z" fill="#d0caca" data-original="#231f20" class=""/>
	<path style="" d="M477.867,477.867h-85.333c-4.71,0-8.533-3.823-8.533-8.533V8.533C384,3.823,387.823,0,392.533,0   h85.333c4.71,0,8.533,3.823,8.533,8.533v460.8C486.4,474.044,482.577,477.867,477.867,477.867z M401.067,460.8h68.267V17.067   h-68.267V460.8z" fill="#d0caca" data-original="#231f20" class=""/>
</g>
<g xmlns="http://www.w3.org/2000/svg">
</g>
<g xmlns="http://www.w3.org/2000/svg">
</g>
<g xmlns="http://www.w3.org/2000/svg">
</g>
<g xmlns="http://www.w3.org/2000/svg">
</g>
<g xmlns="http://www.w3.org/2000/svg">
</g>
<g xmlns="http://www.w3.org/2000/svg">
</g>
<g xmlns="http://www.w3.org/2000/svg">
</g>
<g xmlns="http://www.w3.org/2000/svg">
</g>
<g xmlns="http://www.w3.org/2000/svg">
</g>
<g xmlns="http://www.w3.org/2000/svg">
</g>
<g xmlns="http://www.w3.org/2000/svg">
</g>
<g xmlns="http://www.w3.org/2000/svg">
</g>
<g xmlns="http://www.w3.org/2000/svg">
</g>
<g xmlns="http://www.w3.org/2000/svg">
</g>
<g xmlns="http://www.w3.org/2000/svg">
</g>
</g></svg>
